<?xml version="1.0" standalone="no"?>
<!DOCTYPE svg PUBLIC "-//W3C//DTD SVG 20010904//EN"
 "http://www.w3.org/TR/2001/REC-SVG-20010904/DTD/svg10.dtd">
<svg version="1.0" xmlns="http://www.w3.org/2000/svg"
 width="400.000000pt" height="400.000000pt" viewBox="0 0 400.000000 400.000000"
 preserveAspectRatio="xMidYMid meet">
<metadata>
Created by potrace 1.16, written by Peter Selinger 2001-2019
</metadata>
<g transform="translate(0.000000,400.000000) scale(0.100000,-0.100000)"
fill="#000000" stroke="none">
<path d="M2570 3570 c-276 -77 -457 -256 -532 -526 -18 -66 -22 -107 -22 -251
l-1 -173 -83 0 c-390 0 -922 285 -1394 748 l-87 86 -22 -50 c-11 -27 -32 -92
-46 -144 -35 -129 -37 -335 -5 -451 37 -136 102 -248 211 -363 l66 -69 -62 6
c-77 8 -155 37 -204 77 -21 16 -41 30 -45 30 -14 0 7 -190 30 -283 67 -263
225 -437 476 -523 l65 -22 -38 -7 c-53 -10 -185 -11 -229 -2 -34 7 -38 6 -38
-12 0 -11 12 -52 26 -91 65 -181 177 -305 346 -385 73 -35 210 -75 255 -75 33
0 29 -16 -14 -53 -78 -68 -142 -111 -248 -163 -194 -95 -425 -136 -645 -114
-62 6 -117 13 -122 16 -4 3 -8 1 -8 -4 0 -22 162 -133 289 -196 370 -186 843
-224 1361 -109 173 38 364 99 467 149 215 103 482 313 656 514 356 412 537
917 537 1500 l0 147 83 65 c82 66 203 183 232 226 l16 22 -181 0 -182 0 57 46
c116 95 225 258 241 360 3 25 4 48 1 51 -3 3 -36 -14 -73 -37 -138 -87 -324
-170 -382 -170 -15 0 -47 21 -90 61 -163 149 -459 224 -662 169z"/>
</g>
</svg>
